<svg width="33" height="33" viewBox="0 0 33 33" fill="none" xmlns="http://www.w3.org/2000/svg">
<path d="M31.43 17.76L24.5 14.57V11.69C23.7579 11.312 23.0823 10.8155 22.5 10.22V14.56L16.07 17.56V9.87002C16.1904 9.86365 16.3088 9.83659 16.42 9.79002L20.9 7.73002C20.6507 7.088 20.4892 6.41526 20.42 5.73002L16 7.73002L10.9 5.43002L16 3.08002L20.38 5.08002V5.00002C20.3801 4.32428 20.4709 3.6516 20.65 3.00002L16.4 1.08002C16.2684 1.0191 16.1251 0.987549 15.98 0.987549C15.835 0.987549 15.6916 1.0191 15.56 1.08002L8.06 4.53003C7.88642 4.61036 7.73952 4.73878 7.63672 4.90008C7.53392 5.06137 7.47953 5.24876 7.48 5.44002V14.58L0.580003 17.76C0.406423 17.8404 0.259522 17.9688 0.15672 18.1301C0.0539189 18.2914 -0.000470225 18.4788 3.06274e-06 18.67V28.45C-0.000470225 28.6413 0.0539189 28.8287 0.15672 28.99C0.259522 29.1513 0.406423 29.2797 0.580003 29.36L8.08 32.81C8.21164 32.8709 8.35495 32.9025 8.5 32.9025C8.64505 32.9025 8.78837 32.8709 8.92 32.81L16 29.55L23.08 32.81C23.2116 32.8709 23.355 32.9025 23.5 32.9025C23.6451 32.9025 23.7884 32.8709 23.92 32.81L31.42 29.36C31.5936 29.2797 31.7405 29.1513 31.8433 28.99C31.9461 28.8287 32.0005 28.6413 32 28.45V18.67C32.0014 18.4798 31.9485 18.2932 31.8475 18.132C31.7465 17.9708 31.6017 17.8418 31.43 17.76V17.76ZM3.43 18.67L8.54 16.31L13.65 18.66L8.5 21L3.43 18.67ZM8.5 30.8V23.11C8.63919 23.0996 8.77503 23.0622 8.9 23L14.98 20.2V27.8L8.5 30.8ZM18.4 18.67L23.51 16.32L28.62 18.67L23.51 21L18.4 18.67ZM23.54 30.8V23.11C23.6665 23.0994 23.7892 23.0619 23.9 23L29.98 20.2V27.8L23.54 30.8Z" fill="white"/>
<path d="M27.88 10C30.6414 10 32.88 7.76142 32.88 5C32.88 2.23858 30.6414 0 27.88 0C25.1186 0 22.88 2.23858 22.88 5C22.88 7.76142 25.1186 10 27.88 10Z" fill="white"/>
</svg>
