<svg width="245" height="55" viewBox="0 0 245 55" fill="none" xmlns="http://www.w3.org/2000/svg">
<path d="M73.6933 36V21.778L73.1733 19.152L73.6933 17.592H82.0133C83.2786 17.592 84.4139 17.7913 85.4193 18.19C86.4419 18.5713 87.2479 19.23 87.8373 20.166C88.4439 21.0847 88.7473 22.3587 88.7473 23.988C88.7473 25.4613 88.4786 26.6573 87.9413 27.576C87.4039 28.4773 86.6586 29.1533 85.7053 29.604L85.9653 29.89L88.5393 33.114L90.0213 34.44V36H84.1713L80.5313 30.462H78.3733V31.814L78.6333 34.414L78.3733 36H73.6933ZM78.3733 26.38H80.9213C81.8226 26.38 82.5419 26.2153 83.0793 25.886C83.6166 25.5393 83.8853 24.9067 83.8853 23.988C83.8853 23.3467 83.7553 22.87 83.4953 22.558C83.2353 22.2287 82.8713 22.012 82.4033 21.908C81.9526 21.804 81.4239 21.752 80.8173 21.752H78.1133L78.3733 26.38ZM97.3076 36.26C95.9729 36.26 94.7856 36.0607 93.7456 35.662C92.7056 35.2633 91.8909 34.596 91.3016 33.66C90.7122 32.724 90.4176 31.4587 90.4176 29.864C90.4176 28.72 90.6082 27.7407 90.9896 26.926C91.3882 26.1113 91.9169 25.4527 92.5756 24.95C93.2342 24.43 93.9709 24.0573 94.7856 23.832C95.6002 23.5893 96.4409 23.468 97.3076 23.468C98.7982 23.468 99.9422 23.6153 100.74 23.91C101.554 24.2047 102.092 24.4387 102.352 24.612L103.652 28.746L103.132 30.358H95.0716C95.1929 30.9993 95.5136 31.5367 96.0336 31.97C96.5536 32.4033 97.4116 32.62 98.6076 32.62C99.5436 32.62 100.35 32.516 101.026 32.308C101.702 32.1 102.23 31.918 102.612 31.762V35.246C102.092 35.5233 101.338 35.766 100.35 35.974C99.3789 36.1647 98.3649 36.26 97.3076 36.26ZM95.0976 28.694L98.6856 28.174L98.4516 27.056C98.3302 26.9867 98.1482 26.9347 97.9056 26.9C97.6802 26.8653 97.4809 26.848 97.3076 26.848C96.8222 26.848 96.4149 26.952 96.0856 27.16C95.7736 27.368 95.5309 27.6193 95.3576 27.914C95.2016 28.1913 95.1149 28.4513 95.0976 28.694ZM110.896 36.26C109.63 36.26 108.512 36.13 107.542 35.87C106.571 35.61 105.817 35.3413 105.28 35.064V31.45C105.99 31.762 106.718 32.0047 107.464 32.178C108.226 32.3513 108.911 32.4727 109.518 32.542C110.124 32.594 110.558 32.62 110.818 32.62C111.112 32.62 111.32 32.5767 111.442 32.49C111.563 32.386 111.624 32.2647 111.624 32.126C111.624 31.9353 111.468 31.7793 111.156 31.658C110.844 31.5193 110.254 31.346 109.388 31.138C108.677 30.9647 107.984 30.748 107.308 30.488C106.649 30.2107 106.103 29.8293 105.67 29.344C105.254 28.8587 105.046 28.2087 105.046 27.394C105.046 26.3887 105.28 25.6 105.748 25.028C106.216 24.456 106.883 24.0573 107.75 23.832C108.616 23.5893 109.63 23.468 110.792 23.468C111.45 23.468 112.066 23.5027 112.638 23.572C113.21 23.6413 113.617 23.6933 113.86 23.728L116.278 25.288L115.108 28.07L110.558 27.082C110.003 27.082 109.726 27.264 109.726 27.628C109.726 28.0093 110.124 28.2953 110.922 28.486C111.546 28.6247 112.187 28.7807 112.846 28.954C113.504 29.11 114.102 29.318 114.64 29.578C115.194 29.838 115.636 30.1847 115.966 30.618C116.312 31.0513 116.486 31.6233 116.486 32.334C116.486 33.6513 116.009 34.6393 115.056 35.298C114.12 35.9393 112.733 36.26 110.896 36.26ZM122.206 36.26C121.166 36.26 120.36 36.0607 119.788 35.662C119.233 35.2633 118.843 34.6913 118.618 33.946C118.41 33.1833 118.306 32.2733 118.306 31.216V23.702H122.986V30.54C122.986 31.1813 123.107 31.684 123.35 32.048C123.61 32.412 123.991 32.594 124.494 32.594C124.962 32.594 125.386 32.3947 125.768 31.996C126.166 31.5973 126.366 31.0167 126.366 30.254V23.702H131.046V31.814L131.592 34.414L131.046 36H126.652V34.726L126.392 34.596C126.166 34.8213 125.837 35.064 125.404 35.324C124.988 35.584 124.502 35.8093 123.948 36C123.41 36.1733 122.83 36.26 122.206 36.26ZM133.565 25.314L134.371 23.728H138.245V24.846L138.479 25.002C138.67 24.8287 138.93 24.6293 139.259 24.404C139.606 24.1613 140.022 23.9447 140.507 23.754C140.993 23.5633 141.539 23.468 142.145 23.468C143.948 23.468 145.239 24.066 146.019 25.262C146.331 24.8287 146.799 24.4213 147.423 24.04C148.065 23.6413 148.949 23.442 150.075 23.442C151.635 23.442 152.805 23.884 153.585 24.768C154.365 25.652 154.755 26.8913 154.755 28.486V31.814L155.301 34.414L154.755 36H150.075V29.162C150.075 28.5033 149.928 28.0007 149.633 27.654C149.356 27.29 148.914 27.108 148.307 27.108C147.909 27.108 147.562 27.2553 147.267 27.55C146.973 27.8447 146.825 28.2173 146.825 28.668V36H142.145V29.188C142.145 28.5293 141.998 28.0267 141.703 27.68C141.426 27.316 140.984 27.134 140.377 27.134L138.765 27.628V36H134.085V28.174L133.565 25.314ZM163.882 36.26C162.547 36.26 161.36 36.0607 160.32 35.662C159.28 35.2633 158.465 34.596 157.876 33.66C157.286 32.724 156.992 31.4587 156.992 29.864C156.992 28.72 157.182 27.7407 157.564 26.926C157.962 26.1113 158.491 25.4527 159.15 24.95C159.808 24.43 160.545 24.0573 161.36 23.832C162.174 23.5893 163.015 23.468 163.882 23.468C165.372 23.468 166.516 23.6153 167.314 23.91C168.128 24.2047 168.666 24.4387 168.926 24.612L170.226 28.746L169.706 30.358H161.646C161.767 30.9993 162.088 31.5367 162.608 31.97C163.128 32.4033 163.986 32.62 165.182 32.62C166.118 32.62 166.924 32.516 167.6 32.308C168.276 32.1 168.804 31.918 169.186 31.762V35.246C168.666 35.5233 167.912 35.766 166.924 35.974C165.953 36.1647 164.939 36.26 163.882 36.26ZM161.672 28.694L165.26 28.174L165.026 27.056C164.904 26.9867 164.722 26.9347 164.48 26.9C164.254 26.8653 164.055 26.848 163.882 26.848C163.396 26.848 162.989 26.952 162.66 27.16C162.348 27.368 162.105 27.6193 161.932 27.914C161.776 28.1913 161.689 28.4513 161.672 28.694ZM173.96 36L173.44 32.724C172.955 32.1173 172.573 31.3373 172.296 30.384C172.019 29.4307 171.88 28.2433 171.88 26.822C171.88 24.898 172.123 23.3207 172.608 22.09C173.111 20.8593 173.778 19.8973 174.61 19.204C175.459 18.5107 176.404 18.034 177.444 17.774C178.501 17.4967 179.585 17.358 180.694 17.358C181.803 17.358 182.878 17.4967 183.918 17.774C184.975 18.0513 185.92 18.5367 186.752 19.23C187.601 19.9233 188.269 20.8853 188.754 22.116C189.257 23.3467 189.508 24.9153 189.508 26.822C189.508 28.3127 189.352 29.552 189.04 30.54C188.728 31.528 188.295 32.3253 187.74 32.932C187.463 33.2613 187.151 33.5387 186.804 33.764C186.457 33.9893 186.085 34.18 185.686 34.336L185.712 34.466L187.74 34.986L191.302 36.572L188.962 40.524C188.962 40.524 188.745 40.4113 188.312 40.186C187.879 39.978 187.324 39.7093 186.648 39.38C185.972 39.0507 185.27 38.704 184.542 38.34C183.831 37.9933 183.181 37.6813 182.592 37.404C182.02 37.1267 181.613 36.9273 181.37 36.806C180.763 36.5113 180.2 36.3033 179.68 36.182C179.16 36.0607 178.475 36 177.626 36H173.96ZM178.614 31.866H180.668C182.055 31.866 183.051 31.4413 183.658 30.592C184.282 29.7253 184.594 28.4687 184.594 26.822C184.594 24.9847 184.265 23.6847 183.606 22.922C182.947 22.1593 181.977 21.778 180.694 21.778C179.429 21.778 178.467 22.168 177.808 22.948C177.149 23.728 176.82 25.0193 176.82 26.822C176.82 27.6367 176.907 28.3907 177.08 29.084C177.271 29.7773 177.505 30.3667 177.782 30.852C178.059 31.3373 178.337 31.6753 178.614 31.866ZM195.458 36.26C194.418 36.26 193.612 36.0607 193.04 35.662C192.485 35.2633 192.095 34.6913 191.87 33.946C191.662 33.1833 191.558 32.2733 191.558 31.216V23.702H196.238V30.54C196.238 31.1813 196.359 31.684 196.602 32.048C196.862 32.412 197.243 32.594 197.746 32.594C198.214 32.594 198.638 32.3947 199.02 31.996C199.418 31.5973 199.618 31.0167 199.618 30.254V23.702H204.298V31.814L204.844 34.414L204.298 36H199.904V34.726L199.644 34.596C199.418 34.8213 199.089 35.064 198.656 35.324C198.24 35.584 197.754 35.8093 197.2 36C196.662 36.1733 196.082 36.26 195.458 36.26ZM213.317 36.26C211.983 36.26 210.795 36.0607 209.755 35.662C208.715 35.2633 207.901 34.596 207.311 33.66C206.722 32.724 206.427 31.4587 206.427 29.864C206.427 28.72 206.618 27.7407 206.999 26.926C207.398 26.1113 207.927 25.4527 208.585 24.95C209.244 24.43 209.981 24.0573 210.795 23.832C211.61 23.5893 212.451 23.468 213.317 23.468C214.808 23.468 215.952 23.6153 216.749 23.91C217.564 24.2047 218.101 24.4387 218.361 24.612L219.661 28.746L219.141 30.358H211.081C211.203 30.9993 211.523 31.5367 212.043 31.97C212.563 32.4033 213.421 32.62 214.617 32.62C215.553 32.62 216.359 32.516 217.035 32.308C217.711 32.1 218.24 31.918 218.621 31.762V35.246C218.101 35.5233 217.347 35.766 216.359 35.974C215.389 36.1647 214.375 36.26 213.317 36.26ZM211.107 28.694L214.695 28.174L214.461 27.056C214.34 26.9867 214.158 26.9347 213.915 26.9C213.69 26.8653 213.491 26.848 213.317 26.848C212.832 26.848 212.425 26.952 212.095 27.16C211.783 27.368 211.541 27.6193 211.367 27.914C211.211 28.1913 211.125 28.4513 211.107 28.694ZM226.905 36.26C225.64 36.26 224.522 36.13 223.551 35.87C222.581 35.61 221.827 35.3413 221.289 35.064V31.45C222 31.762 222.728 32.0047 223.473 32.178C224.236 32.3513 224.921 32.4727 225.527 32.542C226.134 32.594 226.567 32.62 226.827 32.62C227.122 32.62 227.33 32.5767 227.451 32.49C227.573 32.386 227.633 32.2647 227.633 32.126C227.633 31.9353 227.477 31.7793 227.165 31.658C226.853 31.5193 226.264 31.346 225.397 31.138C224.687 30.9647 223.993 30.748 223.317 30.488C222.659 30.2107 222.113 29.8293 221.679 29.344C221.263 28.8587 221.055 28.2087 221.055 27.394C221.055 26.3887 221.289 25.6 221.757 25.028C222.225 24.456 222.893 24.0573 223.759 23.832C224.626 23.5893 225.64 23.468 226.801 23.468C227.46 23.468 228.075 23.5027 228.647 23.572C229.219 23.6413 229.627 23.6933 229.869 23.728L232.287 25.288L231.117 28.07L226.567 27.082C226.013 27.082 225.735 27.264 225.735 27.628C225.735 28.0093 226.134 28.2953 226.931 28.486C227.555 28.6247 228.197 28.7807 228.855 28.954C229.514 29.11 230.112 29.318 230.649 29.578C231.204 29.838 231.646 30.1847 231.975 30.618C232.322 31.0513 232.495 31.6233 232.495 32.334C232.495 33.6513 232.019 34.6393 231.065 35.298C230.129 35.9393 228.743 36.26 226.905 36.26ZM239.333 36.26C238.155 36.26 237.21 35.9133 236.499 35.22C235.789 34.5267 235.433 33.6513 235.433 32.594V26.926H233.535V24.456L235.173 23.182L237.019 19.958H240.087V23.728H243.727V27.108H240.087V32.672L243.727 32.646V35.48C243.727 35.48 243.519 35.5493 243.103 35.688C242.705 35.8093 242.176 35.9307 241.517 36.052C240.859 36.1907 240.131 36.26 239.333 36.26Z" fill="white"/>
<path d="M20.5042 50.5882L0 52L6.38141 5.05882L26.2579 4L20.5042 50.5882Z" fill="#DFE9EF"/>
<path d="M44.4372 55L21.209 50.268L27.0693 4L41.7734 9.25773L44.4372 55Z" fill="#BBC3C7"/>
<path d="M63.6245 49.1067L44.0387 55L41.4062 9.76L57.2012 3L63.6245 49.1067Z" fill="#DFE9EF"/>
<path d="M43.4272 52L21.209 46.8492L26.0528 8L41.2159 13.2381L43.4272 52Z" fill="#7FBCF5"/>
<path d="M59.5848 47.1697L43.6786 52L41.4062 13.006L54.2827 8L59.5848 47.1697Z" fill="#9BC3FF"/>
<path d="M14.1389 0C9.67684 0 6.05957 3.37535 6.05957 7.53907C6.05957 8.93152 6.35165 10.3697 7.18984 11.4063L14.1389 20L21.088 11.4063C21.8494 10.4648 22.2183 8.80032 22.2183 7.53907C22.2183 3.37535 18.601 0 14.1389 0ZM14.1389 4.36645C16.0164 4.36645 17.5389 5.78713 17.5389 7.53905C17.5389 9.291 16.0164 10.7117 14.1389 10.7117C12.2615 10.7117 10.739 9.291 10.739 7.53907C10.739 5.78713 12.2615 4.36645 14.1389 4.36645Z" fill="#D90000"/>
</svg>
