<svg width="244" height="55" viewBox="0 0 244 55" fill="none" xmlns="http://www.w3.org/2000/svg">
<path d="M73.08 36V21.778L72.56 19.152L73.08 17.592H81.4C82.6653 17.592 83.8007 17.7913 84.806 18.19C85.8287 18.5713 86.6347 19.23 87.224 20.166C87.8307 21.0847 88.134 22.3587 88.134 23.988C88.134 25.4613 87.8653 26.6573 87.328 27.576C86.7907 28.4773 86.0453 29.1533 85.092 29.604L85.352 29.89L87.926 33.114L89.408 34.44V36H83.558L79.918 30.462H77.76V31.814L78.02 34.414L77.76 36H73.08ZM77.76 26.38H80.308C81.2093 26.38 81.9287 26.2153 82.466 25.886C83.0033 25.5393 83.272 24.9067 83.272 23.988C83.272 23.3467 83.142 22.87 82.882 22.558C82.622 22.2287 82.258 22.012 81.79 21.908C81.3393 21.804 80.8107 21.752 80.204 21.752H77.5L77.76 26.38ZM96.6943 36.26C95.3596 36.26 94.1723 36.0607 93.1323 35.662C92.0923 35.2633 91.2776 34.596 90.6883 33.66C90.099 32.724 89.8043 31.4587 89.8043 29.864C89.8043 28.72 89.995 27.7407 90.3763 26.926C90.775 26.1113 91.3036 25.4527 91.9623 24.95C92.621 24.43 93.3576 24.0573 94.1723 23.832C94.987 23.5893 95.8276 23.468 96.6943 23.468C98.185 23.468 99.329 23.6153 100.126 23.91C100.941 24.2047 101.478 24.4387 101.738 24.612L103.038 28.746L102.518 30.358H94.4583C94.5796 30.9993 94.9003 31.5367 95.4203 31.97C95.9403 32.4033 96.7983 32.62 97.9943 32.62C98.9303 32.62 99.7363 32.516 100.412 32.308C101.088 32.1 101.617 31.918 101.998 31.762V35.246C101.478 35.5233 100.724 35.766 99.7363 35.974C98.7656 36.1647 97.7516 36.26 96.6943 36.26ZM94.4843 28.694L98.0723 28.174L97.8383 27.056C97.717 26.9867 97.535 26.9347 97.2923 26.9C97.067 26.8653 96.8676 26.848 96.6943 26.848C96.209 26.848 95.8016 26.952 95.4723 27.16C95.1603 27.368 94.9176 27.6193 94.7443 27.914C94.5883 28.1913 94.5016 28.4513 94.4843 28.694ZM110.282 36.26C109.017 36.26 107.899 36.13 106.928 35.87C105.958 35.61 105.204 35.3413 104.666 35.064V31.45C105.377 31.762 106.105 32.0047 106.85 32.178C107.613 32.3513 108.298 32.4727 108.904 32.542C109.511 32.594 109.944 32.62 110.204 32.62C110.499 32.62 110.707 32.5767 110.828 32.49C110.95 32.386 111.01 32.2647 111.01 32.126C111.01 31.9353 110.854 31.7793 110.542 31.658C110.23 31.5193 109.641 31.346 108.774 31.138C108.064 30.9647 107.37 30.748 106.694 30.488C106.036 30.2107 105.49 29.8293 105.056 29.344C104.64 28.8587 104.432 28.2087 104.432 27.394C104.432 26.3887 104.666 25.6 105.134 25.028C105.602 24.456 106.27 24.0573 107.136 23.832C108.003 23.5893 109.017 23.468 110.178 23.468C110.837 23.468 111.452 23.5027 112.024 23.572C112.596 23.6413 113.004 23.6933 113.246 23.728L115.664 25.288L114.494 28.07L109.944 27.082C109.39 27.082 109.112 27.264 109.112 27.628C109.112 28.0093 109.511 28.2953 110.308 28.486C110.932 28.6247 111.574 28.7807 112.232 28.954C112.891 29.11 113.489 29.318 114.026 29.578C114.581 29.838 115.023 30.1847 115.352 30.618C115.699 31.0513 115.872 31.6233 115.872 32.334C115.872 33.6513 115.396 34.6393 114.442 35.298C113.506 35.9393 112.12 36.26 110.282 36.26ZM121.592 36.26C120.552 36.26 119.746 36.0607 119.174 35.662C118.62 35.2633 118.23 34.6913 118.004 33.946C117.796 33.1833 117.692 32.2733 117.692 31.216V23.702H122.372V30.54C122.372 31.1813 122.494 31.684 122.736 32.048C122.996 32.412 123.378 32.594 123.88 32.594C124.348 32.594 124.773 32.3947 125.154 31.996C125.553 31.5973 125.752 31.0167 125.752 30.254V23.702H130.432V31.814L130.978 34.414L130.432 36H126.038V34.726L125.778 34.596C125.553 34.8213 125.224 35.064 124.79 35.324C124.374 35.584 123.889 35.8093 123.334 36C122.797 36.1733 122.216 36.26 121.592 36.26ZM132.952 25.314L133.758 23.728H137.632V24.846L137.866 25.002C138.057 24.8287 138.317 24.6293 138.646 24.404C138.993 24.1613 139.409 23.9447 139.894 23.754C140.379 23.5633 140.925 23.468 141.532 23.468C143.335 23.468 144.626 24.066 145.406 25.262C145.718 24.8287 146.186 24.4213 146.81 24.04C147.451 23.6413 148.335 23.442 149.462 23.442C151.022 23.442 152.192 23.884 152.972 24.768C153.752 25.652 154.142 26.8913 154.142 28.486V31.814L154.688 34.414L154.142 36H149.462V29.162C149.462 28.5033 149.315 28.0007 149.02 27.654C148.743 27.29 148.301 27.108 147.694 27.108C147.295 27.108 146.949 27.2553 146.654 27.55C146.359 27.8447 146.212 28.2173 146.212 28.668V36H141.532V29.188C141.532 28.5293 141.385 28.0267 141.09 27.68C140.813 27.316 140.371 27.134 139.764 27.134L138.152 27.628V36H133.472V28.174L132.952 25.314ZM163.269 36.26C161.934 36.26 160.747 36.0607 159.707 35.662C158.667 35.2633 157.852 34.596 157.263 33.66C156.673 32.724 156.379 31.4587 156.379 29.864C156.379 28.72 156.569 27.7407 156.951 26.926C157.349 26.1113 157.878 25.4527 158.537 24.95C159.195 24.43 159.932 24.0573 160.747 23.832C161.561 23.5893 162.402 23.468 163.269 23.468C164.759 23.468 165.903 23.6153 166.701 23.91C167.515 24.2047 168.053 24.4387 168.313 24.612L169.613 28.746L169.093 30.358H161.033C161.154 30.9993 161.475 31.5367 161.995 31.97C162.515 32.4033 163.373 32.62 164.569 32.62C165.505 32.62 166.311 32.516 166.987 32.308C167.663 32.1 168.191 31.918 168.573 31.762V35.246C168.053 35.5233 167.299 35.766 166.311 35.974C165.34 36.1647 164.326 36.26 163.269 36.26ZM161.059 28.694L164.647 28.174L164.413 27.056C164.291 26.9867 164.109 26.9347 163.867 26.9C163.641 26.8653 163.442 26.848 163.269 26.848C162.783 26.848 162.376 26.952 162.047 27.16C161.735 27.368 161.492 27.6193 161.319 27.914C161.163 28.1913 161.076 28.4513 161.059 28.694ZM173.347 36L172.827 32.724C172.341 32.1173 171.96 31.3373 171.683 30.384C171.405 29.4307 171.267 28.2433 171.267 26.822C171.267 24.898 171.509 23.3207 171.995 22.09C172.497 20.8593 173.165 19.8973 173.997 19.204C174.846 18.5107 175.791 18.034 176.831 17.774C177.888 17.4967 178.971 17.358 180.081 17.358C181.19 17.358 182.265 17.4967 183.305 17.774C184.362 18.0513 185.307 18.5367 186.139 19.23C186.988 19.9233 187.655 20.8853 188.141 22.116C188.643 23.3467 188.895 24.9153 188.895 26.822C188.895 28.3127 188.739 29.552 188.427 30.54C188.115 31.528 187.681 32.3253 187.127 32.932C186.849 33.2613 186.537 33.5387 186.191 33.764C185.844 33.9893 185.471 34.18 185.073 34.336L185.099 34.466L187.127 34.986L190.689 36.572L188.349 40.524C188.349 40.524 188.132 40.4113 187.699 40.186C187.265 39.978 186.711 39.7093 186.035 39.38C185.359 39.0507 184.657 38.704 183.929 38.34C183.218 37.9933 182.568 37.6813 181.979 37.404C181.407 37.1267 180.999 36.9273 180.757 36.806C180.15 36.5113 179.587 36.3033 179.067 36.182C178.547 36.0607 177.862 36 177.013 36H173.347ZM178.001 31.866H180.055C181.441 31.866 182.438 31.4413 183.045 30.592C183.669 29.7253 183.981 28.4687 183.981 26.822C183.981 24.9847 183.651 23.6847 182.993 22.922C182.334 22.1593 181.363 21.778 180.081 21.778C178.815 21.778 177.853 22.168 177.195 22.948C176.536 23.728 176.207 25.0193 176.207 26.822C176.207 27.6367 176.293 28.3907 176.467 29.084C176.657 29.7773 176.891 30.3667 177.169 30.852C177.446 31.3373 177.723 31.6753 178.001 31.866ZM194.844 36.26C193.804 36.26 192.998 36.0607 192.426 35.662C191.872 35.2633 191.482 34.6913 191.256 33.946C191.048 33.1833 190.944 32.2733 190.944 31.216V23.702H195.624V30.54C195.624 31.1813 195.746 31.684 195.988 32.048C196.248 32.412 196.63 32.594 197.132 32.594C197.6 32.594 198.025 32.3947 198.406 31.996C198.805 31.5973 199.004 31.0167 199.004 30.254V23.702H203.684V31.814L204.23 34.414L203.684 36H199.29V34.726L199.03 34.596C198.805 34.8213 198.476 35.064 198.042 35.324C197.626 35.584 197.141 35.8093 196.586 36C196.049 36.1733 195.468 36.26 194.844 36.26ZM212.704 36.26C211.369 36.26 210.182 36.0607 209.142 35.662C208.102 35.2633 207.287 34.596 206.698 33.66C206.109 32.724 205.814 31.4587 205.814 29.864C205.814 28.72 206.005 27.7407 206.386 26.926C206.785 26.1113 207.313 25.4527 207.972 24.95C208.631 24.43 209.367 24.0573 210.182 23.832C210.997 23.5893 211.837 23.468 212.704 23.468C214.195 23.468 215.339 23.6153 216.136 23.91C216.951 24.2047 217.488 24.4387 217.748 24.612L219.048 28.746L218.528 30.358H210.468C210.589 30.9993 210.91 31.5367 211.43 31.97C211.95 32.4033 212.808 32.62 214.004 32.62C214.94 32.62 215.746 32.516 216.422 32.308C217.098 32.1 217.627 31.918 218.008 31.762V35.246C217.488 35.5233 216.734 35.766 215.746 35.974C214.775 36.1647 213.761 36.26 212.704 36.26ZM210.494 28.694L214.082 28.174L213.848 27.056C213.727 26.9867 213.545 26.9347 213.302 26.9C213.077 26.8653 212.877 26.848 212.704 26.848C212.219 26.848 211.811 26.952 211.482 27.16C211.17 27.368 210.927 27.6193 210.754 27.914C210.598 28.1913 210.511 28.4513 210.494 28.694ZM226.292 36.26C225.027 36.26 223.909 36.13 222.938 35.87C221.967 35.61 221.213 35.3413 220.676 35.064V31.45C221.387 31.762 222.115 32.0047 222.86 32.178C223.623 32.3513 224.307 32.4727 224.914 32.542C225.521 32.594 225.954 32.62 226.214 32.62C226.509 32.62 226.717 32.5767 226.838 32.49C226.959 32.386 227.02 32.2647 227.02 32.126C227.02 31.9353 226.864 31.7793 226.552 31.658C226.24 31.5193 225.651 31.346 224.784 31.138C224.073 30.9647 223.38 30.748 222.704 30.488C222.045 30.2107 221.499 29.8293 221.066 29.344C220.65 28.8587 220.442 28.2087 220.442 27.394C220.442 26.3887 220.676 25.6 221.144 25.028C221.612 24.456 222.279 24.0573 223.146 23.832C224.013 23.5893 225.027 23.468 226.188 23.468C226.847 23.468 227.462 23.5027 228.034 23.572C228.606 23.6413 229.013 23.6933 229.256 23.728L231.674 25.288L230.504 28.07L225.954 27.082C225.399 27.082 225.122 27.264 225.122 27.628C225.122 28.0093 225.521 28.2953 226.318 28.486C226.942 28.6247 227.583 28.7807 228.242 28.954C228.901 29.11 229.499 29.318 230.036 29.578C230.591 29.838 231.033 30.1847 231.362 30.618C231.709 31.0513 231.882 31.6233 231.882 32.334C231.882 33.6513 231.405 34.6393 230.452 35.298C229.516 35.9393 228.129 36.26 226.292 36.26ZM238.72 36.26C237.541 36.26 236.597 35.9133 235.886 35.22C235.175 34.5267 234.82 33.6513 234.82 32.594V26.926H232.922V24.456L234.56 23.182L236.406 19.958H239.474V23.728H243.114V27.108H239.474V32.672L243.114 32.646V35.48C243.114 35.48 242.906 35.5493 242.49 35.688C242.091 35.8093 241.563 35.9307 240.904 36.052C240.245 36.1907 239.517 36.26 238.72 36.26Z" fill="white"/>
<path d="M20.8909 50.5882L0.386719 52L6.76813 5.05882L26.6447 4L20.8909 50.5882Z" fill="#DFE9EF"/>
<path d="M43.8239 55L20.5957 50.268L26.456 4L41.1601 9.25773L43.8239 55Z" fill="#BBC3C7"/>
<path d="M63.0122 49.1067L43.4264 55L40.7939 9.76L56.5889 3L63.0122 49.1067Z" fill="#DFE9EF"/>
<path d="M20.9146 46.9497L4 48L9.19598 8.78775L26 8L20.9146 46.9497Z" fill="#95C8F8"/>
<path d="M42.814 52L20.5957 46.8492L25.4395 8L40.6027 13.2381L42.814 52Z" fill="#7FBCF5"/>
<path d="M58.9725 47.1697L43.0663 52L40.7939 13.006L53.6704 8L58.9725 47.1697Z" fill="#9BC3FF"/>
<path d="M13.5257 0C9.06356 0 5.44629 3.37535 5.44629 7.53907C5.44629 8.93152 5.73837 10.3697 6.57656 11.4063L13.5257 20L20.4747 11.4063C21.2361 10.4648 21.605 8.80032 21.605 7.53907C21.605 3.37535 17.9878 0 13.5257 0ZM13.5257 4.36645C15.4032 4.36645 16.9256 5.78713 16.9256 7.53905C16.9256 9.291 15.4032 10.7117 13.5257 10.7117C11.6482 10.7117 10.1257 9.291 10.1257 7.53907C10.1257 5.78713 11.6482 4.36645 13.5257 4.36645Z" fill="#D90000"/>
</svg>
